Coordinates
version=1
nRows=22
nColumns=24
inDegrees=yes

Units are S.I. units (second, meters, Newtons, ...)
Angles are in degrees.

endheader
time	pelvis_tilt	pelvis_list	pelvis_rotation	pelvis_tx	pelvis_ty	pelvis_tz	hip_flexion_r	hip_adduction_r	hip_rotation_r	knee_angle_r	ankle_angle_r	subtalar_angle_r	mtp_angle_r	hip_flexion_l	hip_adduction_l	hip_rotation_l	knee_angle_l	ankle_angle_l	subtalar_angle_l	mtp_angle_l	lumbar_extension	lumbar_bending	lumbar_rotation
      1.04983333	     -1.52731578	      1.02814875	      1.02216131	      0.53942451	      1.01892090	      0.34147821	      8.65925463	      3.27794779	     -0.34411003	    -11.31498359	      4.65561926	     -9.31511699	      8.73918664	     15.68216332	      0.71455010	     -3.00621753	    -66.98766112	      4.32639486	     -9.54431917	      1.91776556	      0.38509166	     -0.54718013	      3.50843513
      1.05400000	     -1.48450763	      1.10861162	      0.68971433	      0.54419125	      1.01942563	      0.34215075	      8.18585926	      3.23581470	     -0.19498125	    -11.01538550	      4.73648315	     -9.07393389	      8.84919249	     16.14738275	      0.75151605	     -3.31663623	    -66.67565191	      4.52446612	     -9.42299614	      1.92608150	      0.33221032	     -0.62841711	      3.76970495
      1.05816667	     -1.43200017	      1.20116065	      0.36026515	      0.54893491	      1.01992493	      0.34281151	      7.70673291	      3.17580597	     -0.03940296	    -10.72273813	      4.82318600	     -8.83907847	      8.95889587	     16.59123284	      0.79964936	     -3.62439150	    -66.31807907	      4.70057839	     -9.33094213	      1.93204940	      0.26810430	     -0.72709754	      4.02704812
      1.06233333	     -1.43909992	      1.25832484	      0.08128413	      0.55369050	      1.02028837	      0.34339947	      7.27564412	      3.14636974	      0.09147896	    -10.39910588	      4.88027520	     -8.65112655	      8.98398749	     17.10704750	      0.82330172	     -3.86655919	    -65.95454796	      4.85648594	     -9.32164021	      1.93413642	      0.29405889	     -0.79607247	      4.07585810
      1.06650000	     -1.35429003	      1.34812871	     -0.27174664	      0.55836934	      1.02075740	      0.34407935	      6.78639974	      3.08355307	      0.27632004	    -10.14690339	      4.98275359	     -8.41075549	      9.10604628	     17.49647557	      0.84556688	     -4.20426449	    -65.53096722	      5.04598052	     -9.16840913	      1.93843152	      0.16795282	     -0.87923094	      4.50876306
      1.07066667	     -1.35091515	      1.41779180	     -0.57785954	      0.56305120	      1.02106722	      0.34468296	      6.37314180	      3.03543496	      0.44841196	     -9.87108800	      5.02610614	     -8.21624565	      9.15322303	     17.97995977	      0.86372042	     -4.47836432	    -65.09398827	      5.18694277	     -9.14830615	      1.93963195	      0.15380591	     -0.94642002	      4.60687218
      1.07483333	     -1.28898099	      1.48861470	     -0.88267168	      0.56773769	      1.02143538	      0.34529553	      5.89787531	      2.98244115	      0.60760792	     -9.60277062	      5.14491953	     -8.03176714	      9.27804947	     18.38250005	      0.87188651	     -4.76033764	    -64.61396955	      5.33509868	     -9.06871278	      1.94028494	      0.07897456	     -1.02848435	      4.97854700
      1.07900000	     -1.28021474	      1.55155851	     -1.17952419	      0.57239047	      1.02167993	      0.34588118	      5.48851536	      2.93427857	      0.78057456	     -9.34584511	      5.22902648	     -7.85935615	      9.41519677	     18.84210279	      0.87446670	     -5.02418109	    -64.11488172	      5.46315124	     -9.03982693	      1.93894964	      0.06275141	     -1.09877723	      5.21894437
      1.08316667	     -1.23615450	      1.60434294	     -1.46440997	      0.57703340	      1.02195092	      0.34644041	      5.03634128	      2.89188766	      0.94751135	     -9.07940798	      5.30640923	     -7.70165241	      9.53909889	     19.25290388	      0.86668325	     -5.27134939	    -63.58343424	      5.58398471	     -9.00628607	      1.93750762	      0.00038308	     -1.15547641	      5.40971237
      1.08733333	     -1.22607621	      1.65141940	     -1.74005111	      0.58164611	      1.02212852	      0.34697764	      4.62815450	      2.85238072	      1.12213622	     -8.82443408	      5.36374885	     -7.53527253	      9.58447559	     19.69831547	      0.85280637	     -5.50416153	    -63.03220830	      5.69237016	     -8.99742696	      1.93714070	     -0.02896541	     -1.21042829	      5.48190465
      1.09150000	     -1.15662362	      1.71189508	     -2.03197266	      0.58628043	      1.02238574	      0.34752519	      4.16174399	      2.79326986	      1.29759685	     -8.58565837	      5.45678753	     -7.39922037	      9.66095535	     20.05025794	      0.84494025	     -5.76103328	    -62.41939403	      5.78693215	     -8.95911735	      1.93635099	     -0.10424631	     -1.27090080	      5.69993936
      1.09566667	     -1.13974662	      1.75469790	     -2.29486878	      0.59088283	      1.02251541	      0.34802246	      3.74871732	      2.75062879	      1.47428312	     -8.33794544	      5.54074446	     -7.26291897	      9.72927896	     20.46413320	      0.82782852	     -5.97140247	    -61.80107351	      5.87513397	     -8.93499480	      1.93579561	     -0.14071532	     -1.31555574	      5.87490631
      1.09983333	     -1.10599508	      1.79238162	     -2.55484952	      0.59547000	      1.02265526	      0.34852105	      3.31857030	      2.71028567	      1.65649950	     -8.09155582	      5.62580263	     -7.13676611	      9.79727666	     20.84717212	      0.80272923	     -6.17481528	    -61.14726589	      5.94870526	     -8.90534334	      1.93568558	     -0.19691677	     -1.36022220	      6.04937356
      1.10400000	     -1.10177416	      1.81118607	     -2.78858637	      0.60004334	      1.02268924	      0.34896902	      2.91492581	      2.68761216	      1.82946884	     -7.83647151	      5.71742679	     -7.00807505	      9.84230794	     21.26397421	      0.76202112	     -6.34713966	    -60.48917282	      6.02338861	     -8.87817108	      1.93614809	     -0.23356345	     -1.39696814	      6.16037934
      1.10816667	     -1.02060256	      1.84838423	     -3.03892200	      0.60462726	      1.02284726	      0.34942396	      2.43400863	      2.63714366	      2.00754088	     -7.59417334	      5.82230194	     -6.92786535	      9.94728420	     21.56478077	      0.74244715	     -6.53180494	    -59.76011035	      6.07644640	     -8.82990268	      1.93922166	     -0.34034062	     -1.42890548	      6.44426739
      1.11233333	     -1.00497528	      1.87325826	     -3.28668864	      0.60918225	      1.02286429	      0.34985910	      2.03675658	      2.59956069	      2.18999018	     -7.37442930	      5.89747190	     -6.81196499	     10.00693355	     21.93522352	      0.70338118	     -6.71079601	    -59.02087728	      6.12124481	     -8.77466255	      1.94212025	     -0.37802345	     -1.45151905	      6.53341929
      1.11650000	     -0.99789612	      1.89187840	     -3.51668939	      0.61374227	      1.02283148	      0.35026667	      1.64311590	      2.56634693	      2.36833264	     -7.14760348	      5.99332247	     -6.70884167	     10.05950950	     22.30579087	      0.66274789	     -6.86472915	    -58.25812413	      6.15879056	     -8.71229374	      1.94612554	     -0.40777820	     -1.47271308	      6.64592261
      1.12066667	     -0.95129172	      1.91108682	     -3.74633398	      0.61828888	      1.02285057	      0.35066345	      1.20714663	      2.52605360	      2.54547150	     -6.91972310	      6.09192979	     -6.61086400	     10.11283169	     22.61624509	      0.62547109	     -7.01459658	    -57.45361240	      6.18400376	     -8.63828576	      1.95203994	     -0.48659511	     -1.49897146	      6.77510496
      1.12483333	     -0.95732819	      1.90830208	     -3.93958057	      0.62284660	      1.02273634	      0.35100069	      0.81440262	      2.50936696	      2.69857572	     -6.67085122	      6.20595510	     -6.49992426	     10.14377561	     22.98709963	      0.57150678	     -7.12217138	    -56.65240809	      6.20656258	     -8.56890932	      1.95631522	     -0.51242436	     -1.50689534	      6.84645211
      1.12900000	     -0.91050834	      1.93584330	     -4.17697714	      0.62738066	      1.02270216	      0.35138051	      0.39931290	      2.45314017	      2.87655008	     -6.48553613	      6.30673162	     -6.41967106	     10.19363929	     23.26479066	      0.54135990	     -7.27130967	    -55.77405812	      6.20942106	     -8.45407646	      1.96705317	     -0.58880304	     -1.53140727	      6.99630241
      1.13316667	     -0.86848075	      1.92468650	     -4.37071908	      0.63192352	      1.02261163	      0.35170394	     -0.04230474	      2.43653472	      3.03803584	     -6.24376234	      6.42260272	     -6.34523856	     10.27540512	     23.55132235	      0.48188622	     -7.36833740	    -54.90504439	      6.22665543	     -8.33547573	      1.99150166	     -0.67573982	     -1.52101210	      7.18296059
      1.13733333	     -0.87998619	      1.92342199	     -4.56172333	      0.63648524	      1.02243404	      0.35200719	     -0.41792849	      2.40876799	      3.18566097	     -6.01737322	      6.53137080	     -6.23258701	     10.30124915	     23.88227102	      0.42874812	     -7.46596519	    -54.00385770	      6.21100710	     -8.22397465	      1.99934388	     -0.68894830	     -1.52230202	      7.20806259
